<mxfile host="app.diagrams.net" modified="2021-04-03T00:52:58.627Z" agent="5.0 (Windows NT 10.0; Win64; x64) AppleWebKit/537.36 (KHTML, like Gecko) Chrome/89.0.4389.90 Safari/537.36" etag="5GchBD3jMOc27v47LViN" version="14.5.4" type="github">
  <diagram id="C5RBs43oDa-KdzZeNtuy" name="自定义Mybatis框架">
    <mxGraphModel dx="920" dy="514" grid="1" gridSize="10" guides="1" tooltips="1" connect="1" arrows="1" fold="1" page="1" pageScale="1" pageWidth="827" pageHeight="1169" math="0" shadow="0">
      <root>
        <mxCell id="WIyWlLk6GJQsqaUBKTNV-0" />
        <mxCell id="WIyWlLk6GJQsqaUBKTNV-1" parent="WIyWlLk6GJQsqaUBKTNV-0" />
        <mxCell id="wIvYy9SvaJb5gEYHEysC-5" value="&lt;pre style=&quot;font-family: &amp;#34;jetbrains mono&amp;#34; , monospace ; font-size: 9.8pt&quot;&gt;&lt;span style=&quot;background-color: rgb(255 , 255 , 255)&quot;&gt;XMLConfigBuilder&lt;/span&gt;&lt;/pre&gt;" style="edgeStyle=orthogonalEdgeStyle;rounded=0;orthogonalLoop=1;jettySize=auto;html=1;" edge="1" parent="WIyWlLk6GJQsqaUBKTNV-1" source="wIvYy9SvaJb5gEYHEysC-0" target="wIvYy9SvaJb5gEYHEysC-4">
          <mxGeometry relative="1" as="geometry" />
        </mxCell>
        <mxCell id="wIvYy9SvaJb5gEYHEysC-0" value="sqlMapConfig.xml" style="rounded=0;whiteSpace=wrap;html=1;" vertex="1" parent="WIyWlLk6GJQsqaUBKTNV-1">
          <mxGeometry x="90" y="150" width="120" height="60" as="geometry" />
        </mxCell>
        <mxCell id="wIvYy9SvaJb5gEYHEysC-3" value="" style="edgeStyle=orthogonalEdgeStyle;rounded=0;orthogonalLoop=1;jettySize=auto;html=1;" edge="1" parent="WIyWlLk6GJQsqaUBKTNV-1" source="wIvYy9SvaJb5gEYHEysC-1" target="wIvYy9SvaJb5gEYHEysC-0">
          <mxGeometry relative="1" as="geometry" />
        </mxCell>
        <mxCell id="wIvYy9SvaJb5gEYHEysC-11" value="" style="edgeStyle=orthogonalEdgeStyle;rounded=0;orthogonalLoop=1;jettySize=auto;html=1;fontColor=#000000;" edge="1" parent="WIyWlLk6GJQsqaUBKTNV-1" source="wIvYy9SvaJb5gEYHEysC-1" target="wIvYy9SvaJb5gEYHEysC-10">
          <mxGeometry relative="1" as="geometry" />
        </mxCell>
        <mxCell id="wIvYy9SvaJb5gEYHEysC-14" value="XMLMapperBuilder" style="edgeLabel;html=1;align=center;verticalAlign=middle;resizable=0;points=[];fontColor=#000000;" vertex="1" connectable="0" parent="wIvYy9SvaJb5gEYHEysC-11">
          <mxGeometry x="0.2" y="-2" relative="1" as="geometry">
            <mxPoint x="-16" y="-2" as="offset" />
          </mxGeometry>
        </mxCell>
        <UserObject label="UserMapper.xml" link="UserMapper.xml" id="wIvYy9SvaJb5gEYHEysC-1">
          <mxCell style="whiteSpace=wrap;html=1;rounded=0;" vertex="1" parent="WIyWlLk6GJQsqaUBKTNV-1">
            <mxGeometry x="90" y="300" width="120" height="60" as="geometry" />
          </mxCell>
        </UserObject>
        <mxCell id="wIvYy9SvaJb5gEYHEysC-9" value="" style="edgeStyle=orthogonalEdgeStyle;rounded=0;orthogonalLoop=1;jettySize=auto;html=1;fontColor=#000000;" edge="1" parent="WIyWlLk6GJQsqaUBKTNV-1" source="wIvYy9SvaJb5gEYHEysC-4" target="wIvYy9SvaJb5gEYHEysC-8">
          <mxGeometry relative="1" as="geometry" />
        </mxCell>
        <mxCell id="wIvYy9SvaJb5gEYHEysC-4" value="Configuration" style="whiteSpace=wrap;html=1;rounded=0;" vertex="1" parent="WIyWlLk6GJQsqaUBKTNV-1">
          <mxGeometry x="370" y="150" width="120" height="60" as="geometry" />
        </mxCell>
        <mxCell id="wIvYy9SvaJb5gEYHEysC-16" value="" style="edgeStyle=orthogonalEdgeStyle;rounded=0;orthogonalLoop=1;jettySize=auto;html=1;fontColor=#000000;" edge="1" parent="WIyWlLk6GJQsqaUBKTNV-1" source="wIvYy9SvaJb5gEYHEysC-8" target="wIvYy9SvaJb5gEYHEysC-15">
          <mxGeometry relative="1" as="geometry" />
        </mxCell>
        <mxCell id="wIvYy9SvaJb5gEYHEysC-8" value="DefaultSqlSessionFactory" style="whiteSpace=wrap;html=1;rounded=0;" vertex="1" parent="WIyWlLk6GJQsqaUBKTNV-1">
          <mxGeometry x="570" y="150" width="160" height="60" as="geometry" />
        </mxCell>
        <mxCell id="wIvYy9SvaJb5gEYHEysC-10" value="MappedStatement" style="whiteSpace=wrap;html=1;rounded=0;" vertex="1" parent="WIyWlLk6GJQsqaUBKTNV-1">
          <mxGeometry x="370" y="300" width="120" height="60" as="geometry" />
        </mxCell>
        <mxCell id="wIvYy9SvaJb5gEYHEysC-13" value="" style="endArrow=diamondThin;endFill=0;endSize=24;html=1;fontColor=#000000;entryX=0.5;entryY=1;entryDx=0;entryDy=0;" edge="1" parent="WIyWlLk6GJQsqaUBKTNV-1" source="wIvYy9SvaJb5gEYHEysC-10" target="wIvYy9SvaJb5gEYHEysC-4">
          <mxGeometry width="160" relative="1" as="geometry">
            <mxPoint x="550" y="280" as="sourcePoint" />
            <mxPoint x="710" y="280" as="targetPoint" />
          </mxGeometry>
        </mxCell>
        <mxCell id="wIvYy9SvaJb5gEYHEysC-15" value="DefaultSqlSession" style="whiteSpace=wrap;html=1;rounded=0;" vertex="1" parent="WIyWlLk6GJQsqaUBKTNV-1">
          <mxGeometry x="830" y="150" width="120" height="60" as="geometry" />
        </mxCell>
      </root>
    </mxGraphModel>
  </diagram>
</mxfile>
